M48
;DRILL file {KiCad (5.0.0-3-g5ebb6b6)} date 
;FORMAT={-:-/ absolute / metric / decimal}
FMAT,2
METRIC,TZ
T1C0.400
T2C0.500
T3C0.813
T4C1.000
T5C1.300
T6C1.500
%
G90
G05
M71
T1
X88.2Y-71.4
X95.Y-71.4
X103.5Y-50.8
X104.3Y-49.1
X106.25Y-61.8
X106.25Y-64.4
X106.25Y-66.9
X106.25Y-69.5
X106.35Y-54.1
X106.35Y-59.2
X106.9Y-74.2
X107.65Y-76.2
X110.3Y-78.5
X139.2Y-120.7
X139.2Y-124.1
X121.7Y-125.8
X121.7Y-129.2
X109.8Y-94.5
X109.8Y-97.9
X187.25Y-107.8
X187.25Y-111.2
X149.Y-100.8
X149.Y-104.2
X128.75Y-103.8
X128.75Y-107.2
X187.25Y-89.05
X187.25Y-92.45
X149.Y-81.8
X149.Y-85.2
X128.75Y-84.05
X128.75Y-87.45
X187.25Y-69.55
X187.25Y-72.95
X148.75Y-62.8
X148.75Y-66.2
X128.75Y-65.55
X128.75Y-68.95
X187.25Y-50.8
X187.25Y-54.2
X149.25Y-43.55
X149.25Y-46.95
X128.75Y-46.05
X128.75Y-49.45
X158.7Y-120.7
X158.7Y-124.1
X118.6Y-125.8
X118.6Y-129.2
X206.25Y-107.8
X206.25Y-111.2
X168.25Y-103.05
X168.25Y-106.45
X131.25Y-103.8
X131.25Y-107.2
X206.25Y-89.05
X206.25Y-92.45
X168.25Y-84.05
X168.25Y-87.45
X131.25Y-84.05
X131.25Y-87.45
X206.25Y-69.55
X206.25Y-72.95
X168.25Y-64.8
X168.25Y-68.2
X131.25Y-65.55
X131.25Y-68.95
X206.25Y-50.8
X206.25Y-54.2
X168.25Y-45.8
X168.25Y-49.2
X131.25Y-46.05
X131.25Y-49.45
T2
X89.3Y-65.
X89.3Y-67.
T3
X92.48Y-40.93
X92.48Y-43.47
X92.48Y-46.01
X92.48Y-48.55
X92.48Y-51.09
X92.48Y-53.63
X92.48Y-56.17
X92.48Y-58.71
X92.48Y-61.25
X92.48Y-63.79
X92.48Y-66.33
X92.48Y-68.87
X107.72Y-40.93
X107.72Y-43.47
X107.72Y-46.01
X107.72Y-48.55
X107.72Y-51.09
X107.72Y-53.63
X107.72Y-56.17
X107.72Y-58.71
X107.72Y-61.25
X107.72Y-63.79
X107.72Y-66.33
X107.72Y-68.87
X84.688Y-53.499
X84.688Y-58.579
X93.78Y-42.23
X93.78Y-44.77
X93.78Y-47.31
X93.78Y-49.85
X93.78Y-52.39
X93.78Y-54.93
X93.78Y-57.47
X93.78Y-60.01
X93.78Y-62.55
X93.78Y-65.09
X93.78Y-67.63
X93.78Y-70.17
X109.02Y-42.23
X109.02Y-44.77
X109.02Y-47.31
X109.02Y-49.85
X109.02Y-52.39
X109.02Y-54.93
X109.02Y-57.47
X109.02Y-60.01
X109.02Y-62.55
X109.02Y-65.09
X109.02Y-67.63
X109.02Y-70.17
X86.938Y-53.499
X86.938Y-58.579
T4
X131.253Y-100.5
X131.253Y-110.66
X206.253Y-85.75
X206.253Y-95.91
X168.253Y-80.75
X168.253Y-90.91
X131.253Y-80.75
X131.253Y-90.91
X206.253Y-66.25
X206.253Y-76.41
X168.253Y-61.5
X168.253Y-71.66
X131.253Y-62.25
X131.253Y-72.41
X206.253Y-47.5
X206.253Y-57.66
X168.253Y-42.5
X168.253Y-52.66
X131.253Y-42.75
X131.253Y-52.91
X139.203Y-117.4
X139.203Y-127.56
X121.703Y-122.5
X121.703Y-132.66
X109.803Y-91.2
X109.803Y-101.36
X187.253Y-104.5
X187.253Y-114.66
X149.003Y-97.5
X149.003Y-107.66
X128.753Y-100.5
X128.753Y-110.66
X187.253Y-85.75
X187.253Y-95.91
X149.003Y-78.5
X149.003Y-88.66
X128.753Y-80.75
X128.753Y-90.91
X187.253Y-66.25
X187.253Y-76.41
X148.753Y-59.5
X148.753Y-69.66
X128.753Y-62.25
X128.753Y-72.41
X187.253Y-47.5
X187.253Y-57.66
X149.253Y-40.25
X149.253Y-50.41
X128.753Y-42.75
X128.753Y-52.91
X158.703Y-117.4
X158.703Y-127.56
X118.603Y-122.5
X118.603Y-132.66
X206.253Y-104.5
X206.253Y-114.66
X168.253Y-99.75
X168.253Y-109.91
T6
X210.7Y-57.7
X211.89Y-51.36
X213.16Y-48.82
X215.7Y-59.8
X218.24Y-48.82
X219.51Y-51.36
X220.7Y-57.7
X191.7Y-94.3
X192.89Y-87.96
X194.16Y-85.42
X196.7Y-96.4
X199.24Y-85.42
X200.51Y-87.96
X201.7Y-94.3
X153.6Y-69.1
X154.79Y-62.76
X156.06Y-60.22
X158.6Y-71.2
X161.14Y-60.22
X162.41Y-62.76
X163.6Y-69.1
X153.6Y-107.2
X154.79Y-100.86
X156.06Y-98.32
X158.6Y-109.3
X161.14Y-98.32
X162.41Y-100.86
X163.6Y-107.2
X115.5Y-53.8
X116.69Y-47.46
X117.96Y-44.92
X120.5Y-55.9
X123.04Y-44.92
X124.31Y-47.46
X125.5Y-53.8
X210.7Y-76.6
X211.89Y-70.26
X213.16Y-67.72
X215.7Y-78.7
X218.24Y-67.72
X219.51Y-70.26
X220.7Y-76.6
X210.7Y-95.8
X211.89Y-89.46
X213.16Y-86.92
X215.7Y-97.9
X218.24Y-86.92
X219.51Y-89.46
X220.7Y-95.8
X125.Y-129.8
X126.19Y-123.46
X127.46Y-120.92
X130.Y-131.9
X132.54Y-120.92
X133.81Y-123.46
X135.Y-129.8
X172.6Y-51.4
X173.79Y-45.06
X175.06Y-42.52
X177.6Y-53.5
X180.14Y-42.52
X181.41Y-45.06
X182.6Y-51.4
X153.6Y-88.2
X154.79Y-81.86
X156.06Y-79.32
X158.6Y-90.3
X161.14Y-79.32
X162.41Y-81.86
X163.6Y-88.2
X115.5Y-72.9
X116.69Y-66.56
X117.96Y-64.02
X120.5Y-75.
X123.04Y-64.02
X124.31Y-66.56
X125.5Y-72.9
X115.5Y-110.9
X116.69Y-104.56
X117.96Y-102.02
X120.5Y-113.
X123.04Y-102.02
X124.31Y-104.56
X125.5Y-110.9
X96.4Y-101.3
X97.59Y-94.96
X98.86Y-92.42
X101.4Y-103.4
X103.94Y-92.42
X105.21Y-94.96
X106.4Y-101.3
X172.6Y-70.4
X173.79Y-64.06
X175.06Y-61.52
X177.6Y-72.5
X180.14Y-61.52
X181.41Y-64.06
X182.6Y-70.4
X172.6Y-108.6
X173.79Y-102.26
X175.06Y-99.72
X177.6Y-110.7
X180.14Y-99.72
X181.41Y-102.26
X182.6Y-108.6
X134.5Y-51.4
X135.69Y-45.06
X136.96Y-42.52
X139.5Y-53.5
X142.04Y-42.52
X143.31Y-45.06
X144.5Y-51.4
X99.209Y-124.57
X99.89Y-129.95
X104.209Y-133.23
X105.295Y-122.43
X108.129Y-122.26
X109.105Y-129.03
X110.669Y-126.66
X115.5Y-91.9
X116.69Y-85.56
X117.96Y-83.02
X120.5Y-94.
X123.04Y-83.02
X124.31Y-85.56
X125.5Y-91.9
X210.75Y-114.8
X211.94Y-108.46
X213.21Y-105.92
X215.75Y-116.9
X218.29Y-105.92
X219.56Y-108.46
X220.75Y-114.8
X163.1Y-127.55
X164.29Y-121.21
X165.56Y-118.67
X168.1Y-129.65
X170.64Y-118.67
X171.91Y-121.21
X173.1Y-127.55
X191.7Y-56.2
X192.89Y-49.86
X194.16Y-47.32
X196.7Y-58.3
X199.24Y-47.32
X200.51Y-49.86
X201.7Y-56.2
X172.6Y-89.5
X173.79Y-83.16
X175.06Y-80.62
X177.6Y-91.6
X180.14Y-80.62
X181.41Y-83.16
X182.6Y-89.5
X134.5Y-70.5
X135.69Y-64.16
X136.96Y-61.62
X139.5Y-72.6
X142.04Y-61.62
X143.31Y-64.16
X144.5Y-70.5
X134.5Y-108.6
X135.69Y-102.26
X136.96Y-99.72
X139.5Y-110.7
X142.04Y-99.72
X143.31Y-102.26
X144.5Y-108.6
X144.Y-127.55
X145.19Y-121.21
X146.46Y-118.67
X149.Y-129.65
X151.54Y-118.67
X152.81Y-121.21
X154.Y-127.55
X191.7Y-75.1
X192.89Y-68.76
X194.16Y-66.22
X196.7Y-77.2
X199.24Y-66.22
X200.51Y-68.76
X201.7Y-75.1
X191.7Y-113.3
X192.89Y-106.96
X194.16Y-104.42
X196.7Y-115.4
X199.24Y-104.42
X200.51Y-106.96
X201.7Y-113.3
X153.53Y-50.01
X154.72Y-43.67
X155.99Y-41.13
X158.53Y-52.11
X161.07Y-41.13
X162.34Y-43.67
X163.53Y-50.01
X134.5Y-89.5
X135.69Y-83.16
X136.96Y-80.62
X139.5Y-91.6
X142.04Y-80.62
X143.31Y-83.16
X144.5Y-89.5
T4
X88.05Y-74.9G85X88.55Y-74.9
G05
X88.05Y-80.85G85X88.55Y-80.85
G05
X91.05Y-74.9G85X91.55Y-74.9
G05
X91.05Y-80.85G85X91.55Y-80.85
G05
X95.05Y-74.9G85X95.55Y-74.9
G05
X95.05Y-80.85G85X95.55Y-80.85
G05
X96.55Y-76.65G85X97.05Y-76.65
G05
X96.55Y-79.1G85X97.05Y-79.1
G05
X84.15Y-42.35G85X84.15Y-42.85
G05
X84.15Y-45.35G85X84.15Y-45.85
G05
X84.15Y-49.35G85X84.15Y-49.85
G05
X85.9Y-50.85G85X85.9Y-51.35
G05
X88.35Y-50.85G85X88.35Y-51.35
G05
X90.1Y-42.35G85X90.1Y-42.85
G05
X90.1Y-45.35G85X90.1Y-45.85
G05
X90.1Y-49.35G85X90.1Y-49.85
G05
T5
X85.9Y-62.5G85X85.2Y-62.5
G05
X85.9Y-69.7G85X85.2Y-69.7
G05
T0
M30
