G04 #@! TF.GenerationSoftware,KiCad,Pcbnew,(5.0.0-3-g5ebb6b6)*
G04 #@! TF.CreationDate,2018-08-17T18:08:10+09:00*
G04 #@! TF.ProjectId,Lily58,4C696C7935382E6B696361645F706362,rev?*
G04 #@! TF.SameCoordinates,Original*
G04 #@! TF.FileFunction,Soldermask,Top*
G04 #@! TF.FilePolarity,Negative*
%FSLAX46Y46*%
G04 Gerber Fmt 4.6, Leading zero omitted, Abs format (unit mm)*
G04 Created by KiCad (PCBNEW (5.0.0-3-g5ebb6b6)) date *
%MOMM*%
%LPD*%
G01*
G04 APERTURE LIST*
%ADD10O,2.900000X2.100000*%
%ADD11C,1.600000*%
%ADD12C,2.300000*%
%ADD13C,3.200000*%
%ADD14C,4.400000*%
%ADD15C,2.100000*%
%ADD16C,3.000000*%
%ADD17O,2.100000X2.900000*%
%ADD18C,1.924000*%
%ADD19C,1.797000*%
%ADD20R,2.398980X2.398980*%
%ADD21C,2.398980*%
%ADD22R,1.900000X2.200000*%
%ADD23R,1.924000X1.924000*%
%ADD24O,3.400000X2.700000*%
%ADD25C,2.600000*%
%ADD26C,5.100400*%
G04 APERTURE END LIST*
D10*
G04 #@! TO.C,J2*
X96800000Y-79100000D03*
X95300000Y-74900000D03*
X91300000Y-74900000D03*
X88300000Y-74900000D03*
D11*
X93500000Y-77000000D03*
X86500000Y-77000000D03*
D10*
X91300000Y-80850000D03*
X88300000Y-80850000D03*
X96800000Y-76650000D03*
X95300000Y-80850000D03*
D11*
X86500000Y-78750000D03*
X93500000Y-78750000D03*
G04 #@! TD*
D12*
G04 #@! TO.C,SW18*
X221200000Y-92000000D03*
X210200000Y-92000000D03*
D11*
X210480000Y-87800000D03*
D13*
X211890000Y-89460000D03*
D14*
X215700000Y-92000000D03*
D15*
X210620000Y-92000000D03*
X220780000Y-92000000D03*
D13*
X219510000Y-89460000D03*
X213160000Y-86920000D03*
X218240000Y-86920000D03*
X210700000Y-95800000D03*
D16*
X215700000Y-97900000D03*
X220700000Y-95800000D03*
D11*
X220920000Y-87800000D03*
G04 #@! TD*
G04 #@! TO.C,J2*
X86250000Y-47800000D03*
X86250000Y-40800000D03*
D17*
X84150000Y-49600000D03*
X88350000Y-51100000D03*
X84150000Y-42600000D03*
X84150000Y-45600000D03*
D11*
X88000000Y-40800000D03*
X88000000Y-47800000D03*
D17*
X90100000Y-42600000D03*
X90100000Y-45600000D03*
X90100000Y-49600000D03*
X85900000Y-51100000D03*
G04 #@! TD*
D12*
G04 #@! TO.C,SW24*
X221250000Y-111000000D03*
X210250000Y-111000000D03*
D11*
X210530000Y-106800000D03*
D13*
X211940000Y-108460000D03*
D14*
X215750000Y-111000000D03*
D15*
X210670000Y-111000000D03*
X220830000Y-111000000D03*
D13*
X219560000Y-108460000D03*
X213210000Y-105920000D03*
X218290000Y-105920000D03*
X210750000Y-114800000D03*
D16*
X215750000Y-116900000D03*
X220750000Y-114800000D03*
D11*
X220970000Y-106800000D03*
G04 #@! TD*
D18*
G04 #@! TO.C,U1*
X92480000Y-40930000D03*
X92480000Y-43470000D03*
X92480000Y-46010000D03*
X92480000Y-48550000D03*
X92480000Y-51090000D03*
X92480000Y-53630000D03*
X92480000Y-56170000D03*
X92480000Y-58710000D03*
X92480000Y-61250000D03*
X92480000Y-63790000D03*
X92480000Y-66330000D03*
X92480000Y-68870000D03*
X107720000Y-68870000D03*
X107720000Y-66330000D03*
X107720000Y-63790000D03*
X107720000Y-61250000D03*
X107720000Y-58710000D03*
X107720000Y-56170000D03*
X107720000Y-53630000D03*
X107720000Y-51090000D03*
X107720000Y-48550000D03*
X107720000Y-46010000D03*
X107720000Y-43470000D03*
X107720000Y-40930000D03*
G04 #@! TD*
D19*
G04 #@! TO.C,R1*
X84688035Y-53499272D03*
X84688035Y-58579272D03*
G04 #@! TD*
D12*
G04 #@! TO.C,SW25*
X106900000Y-97500000D03*
X95900000Y-97500000D03*
D11*
X96180000Y-93300000D03*
D13*
X97590000Y-94960000D03*
D14*
X101400000Y-97500000D03*
D15*
X96320000Y-97500000D03*
X106480000Y-97500000D03*
D13*
X105210000Y-94960000D03*
X98860000Y-92420000D03*
X103940000Y-92420000D03*
X96400000Y-101300000D03*
D16*
X101400000Y-103400000D03*
X106400000Y-101300000D03*
D11*
X106620000Y-93300000D03*
G04 #@! TD*
D12*
G04 #@! TO.C,SW28*
X154500000Y-123750000D03*
X143500000Y-123750000D03*
D11*
X143780000Y-119550000D03*
D13*
X145190000Y-121210000D03*
D14*
X149000000Y-123750000D03*
D15*
X143920000Y-123750000D03*
X154080000Y-123750000D03*
D13*
X152810000Y-121210000D03*
X146460000Y-118670000D03*
X151540000Y-118670000D03*
X144000000Y-127550000D03*
D16*
X149000000Y-129650000D03*
X154000000Y-127550000D03*
D11*
X154220000Y-119550000D03*
G04 #@! TD*
D12*
G04 #@! TO.C,SW1*
X126000000Y-50000000D03*
X115000000Y-50000000D03*
D11*
X115280000Y-45800000D03*
D13*
X116690000Y-47460000D03*
D14*
X120500000Y-50000000D03*
D15*
X115420000Y-50000000D03*
X125580000Y-50000000D03*
D13*
X124310000Y-47460000D03*
X117960000Y-44920000D03*
X123040000Y-44920000D03*
X115500000Y-53800000D03*
D16*
X120500000Y-55900000D03*
X125500000Y-53800000D03*
D11*
X125720000Y-45800000D03*
G04 #@! TD*
G04 #@! TO.C,SW26*
X111247307Y-129420653D03*
D16*
X104209103Y-133230127D03*
X99890450Y-129950000D03*
D13*
X99209103Y-124569873D03*
X110669409Y-126659705D03*
X108129409Y-122260295D03*
X109104705Y-129029557D03*
D15*
X107540000Y-131399409D03*
X102460000Y-122600591D03*
D14*
X105000000Y-127000000D03*
D13*
X105294705Y-122430443D03*
D11*
X106027307Y-120379347D03*
D12*
X102250000Y-122236860D03*
X107750000Y-131763140D03*
G04 #@! TD*
D20*
G04 #@! TO.C,D1*
X128752540Y-42750000D03*
D21*
X128752540Y-52910000D03*
D22*
X128750000Y-46050000D03*
X128750000Y-49450000D03*
G04 #@! TD*
G04 #@! TO.C,D2*
X131250000Y-49450000D03*
X131250000Y-46050000D03*
D21*
X131252540Y-52910000D03*
D20*
X131252540Y-42750000D03*
G04 #@! TD*
G04 #@! TO.C,D3*
X149252540Y-40250000D03*
D21*
X149252540Y-50410000D03*
D22*
X149250000Y-43550000D03*
X149250000Y-46950000D03*
G04 #@! TD*
G04 #@! TO.C,D4*
X168250000Y-49200000D03*
X168250000Y-45800000D03*
D21*
X168252540Y-52660000D03*
D20*
X168252540Y-42500000D03*
G04 #@! TD*
G04 #@! TO.C,D5*
X187252540Y-47500000D03*
D21*
X187252540Y-57660000D03*
D22*
X187250000Y-50800000D03*
X187250000Y-54200000D03*
G04 #@! TD*
G04 #@! TO.C,D6*
X206250000Y-54200000D03*
X206250000Y-50800000D03*
D21*
X206252540Y-57660000D03*
D20*
X206252540Y-47500000D03*
G04 #@! TD*
D22*
G04 #@! TO.C,D7*
X128750000Y-68950000D03*
X128750000Y-65550000D03*
D21*
X128752540Y-72410000D03*
D20*
X128752540Y-62250000D03*
G04 #@! TD*
G04 #@! TO.C,D8*
X131252540Y-62250000D03*
D21*
X131252540Y-72410000D03*
D22*
X131250000Y-65550000D03*
X131250000Y-68950000D03*
G04 #@! TD*
G04 #@! TO.C,D9*
X148750000Y-66200000D03*
X148750000Y-62800000D03*
D21*
X148752540Y-69660000D03*
D20*
X148752540Y-59500000D03*
G04 #@! TD*
G04 #@! TO.C,D10*
X168252540Y-61500000D03*
D21*
X168252540Y-71660000D03*
D22*
X168250000Y-64800000D03*
X168250000Y-68200000D03*
G04 #@! TD*
G04 #@! TO.C,D11*
X187250000Y-72950000D03*
X187250000Y-69550000D03*
D21*
X187252540Y-76410000D03*
D20*
X187252540Y-66250000D03*
G04 #@! TD*
D22*
G04 #@! TO.C,D12*
X206250000Y-72950000D03*
X206250000Y-69550000D03*
D21*
X206252540Y-76410000D03*
D20*
X206252540Y-66250000D03*
G04 #@! TD*
G04 #@! TO.C,D13*
X128752540Y-80750000D03*
D21*
X128752540Y-90910000D03*
D22*
X128750000Y-84050000D03*
X128750000Y-87450000D03*
G04 #@! TD*
G04 #@! TO.C,D14*
X131250000Y-87450000D03*
X131250000Y-84050000D03*
D21*
X131252540Y-90910000D03*
D20*
X131252540Y-80750000D03*
G04 #@! TD*
G04 #@! TO.C,D15*
X149002540Y-78500000D03*
D21*
X149002540Y-88660000D03*
D22*
X149000000Y-81800000D03*
X149000000Y-85200000D03*
G04 #@! TD*
G04 #@! TO.C,D16*
X168250000Y-87450000D03*
X168250000Y-84050000D03*
D21*
X168252540Y-90910000D03*
D20*
X168252540Y-80750000D03*
G04 #@! TD*
G04 #@! TO.C,D17*
X187252540Y-85750000D03*
D21*
X187252540Y-95910000D03*
D22*
X187250000Y-89050000D03*
X187250000Y-92450000D03*
G04 #@! TD*
G04 #@! TO.C,D18*
X206250000Y-92450000D03*
X206250000Y-89050000D03*
D21*
X206252540Y-95910000D03*
D20*
X206252540Y-85750000D03*
G04 #@! TD*
D22*
G04 #@! TO.C,D19*
X128750000Y-107200000D03*
X128750000Y-103800000D03*
D21*
X128752540Y-110660000D03*
D20*
X128752540Y-100500000D03*
G04 #@! TD*
G04 #@! TO.C,D20*
X131252540Y-100500000D03*
D21*
X131252540Y-110660000D03*
D22*
X131250000Y-103800000D03*
X131250000Y-107200000D03*
G04 #@! TD*
G04 #@! TO.C,D21*
X149000000Y-104200000D03*
X149000000Y-100800000D03*
D21*
X149002540Y-107660000D03*
D20*
X149002540Y-97500000D03*
G04 #@! TD*
G04 #@! TO.C,D22*
X168252540Y-99750000D03*
D21*
X168252540Y-109910000D03*
D22*
X168250000Y-103050000D03*
X168250000Y-106450000D03*
G04 #@! TD*
G04 #@! TO.C,D23*
X187250000Y-111200000D03*
X187250000Y-107800000D03*
D21*
X187252540Y-114660000D03*
D20*
X187252540Y-104500000D03*
G04 #@! TD*
G04 #@! TO.C,D24*
X206252540Y-104500000D03*
D21*
X206252540Y-114660000D03*
D22*
X206250000Y-107800000D03*
X206250000Y-111200000D03*
G04 #@! TD*
D20*
G04 #@! TO.C,D25*
X109802540Y-91200000D03*
D21*
X109802540Y-101360000D03*
D22*
X109800000Y-94500000D03*
X109800000Y-97900000D03*
G04 #@! TD*
G04 #@! TO.C,D26*
X118600000Y-129200000D03*
X118600000Y-125800000D03*
D21*
X118602540Y-132660000D03*
D20*
X118602540Y-122500000D03*
G04 #@! TD*
G04 #@! TO.C,D27*
X121702540Y-122500000D03*
D21*
X121702540Y-132660000D03*
D22*
X121700000Y-125800000D03*
X121700000Y-129200000D03*
G04 #@! TD*
G04 #@! TO.C,D28*
X139200000Y-124100000D03*
X139200000Y-120700000D03*
D21*
X139202540Y-127560000D03*
D20*
X139202540Y-117400000D03*
G04 #@! TD*
G04 #@! TO.C,D29*
X158702540Y-117400000D03*
D21*
X158702540Y-127560000D03*
D22*
X158700000Y-120700000D03*
X158700000Y-124100000D03*
G04 #@! TD*
D23*
G04 #@! TO.C,J1*
X109050000Y-76200000D03*
X109050000Y-78740000D03*
X109050000Y-81280000D03*
G04 #@! TD*
D19*
G04 #@! TO.C,R2*
X86938035Y-58579272D03*
X86938035Y-53499272D03*
G04 #@! TD*
D24*
G04 #@! TO.C,RSW1*
X85550000Y-62500000D03*
X85550000Y-69700000D03*
G04 #@! TD*
D11*
G04 #@! TO.C,SW2*
X144720000Y-43400000D03*
D16*
X144500000Y-51400000D03*
X139500000Y-53500000D03*
D13*
X134500000Y-51400000D03*
X142040000Y-42520000D03*
X136960000Y-42520000D03*
X143310000Y-45060000D03*
D15*
X144580000Y-47600000D03*
X134420000Y-47600000D03*
D14*
X139500000Y-47600000D03*
D13*
X135690000Y-45059999D03*
D11*
X134280000Y-43400000D03*
D12*
X134000000Y-47600000D03*
X145000000Y-47600000D03*
G04 #@! TD*
G04 #@! TO.C,SW3*
X164030000Y-46210000D03*
X153030000Y-46210000D03*
D11*
X153310000Y-42010000D03*
D13*
X154720000Y-43670000D03*
D14*
X158530000Y-46210000D03*
D15*
X153450000Y-46210000D03*
X163610000Y-46210000D03*
D13*
X162340000Y-43670000D03*
X155990000Y-41130000D03*
X161070000Y-41130000D03*
X153530000Y-50010000D03*
D16*
X158530000Y-52110000D03*
X163530000Y-50010000D03*
D11*
X163750000Y-42010000D03*
G04 #@! TD*
D12*
G04 #@! TO.C,SW4*
X183100000Y-47600000D03*
X172100000Y-47600000D03*
D11*
X172380000Y-43400000D03*
D13*
X173790000Y-45060000D03*
D14*
X177600000Y-47600000D03*
D15*
X172520000Y-47600000D03*
X182680000Y-47600000D03*
D13*
X181410000Y-45060000D03*
X175060000Y-42520000D03*
X180140000Y-42520000D03*
X172600000Y-51400000D03*
D16*
X177600000Y-53500000D03*
X182600000Y-51400000D03*
D11*
X182820000Y-43400000D03*
G04 #@! TD*
G04 #@! TO.C,SW5*
X201920000Y-48200000D03*
D16*
X201700000Y-56200000D03*
X196700000Y-58300000D03*
D13*
X191700000Y-56200000D03*
X199240000Y-47320000D03*
X194160000Y-47320000D03*
X200510000Y-49860000D03*
D15*
X201780000Y-52400000D03*
X191620000Y-52400000D03*
D14*
X196700000Y-52400000D03*
D13*
X192890000Y-49860000D03*
D11*
X191480000Y-48200000D03*
D12*
X191200000Y-52400000D03*
X202200000Y-52400000D03*
G04 #@! TD*
D11*
G04 #@! TO.C,SW6*
X220920000Y-49700000D03*
D16*
X220700000Y-57700000D03*
X215700000Y-59800000D03*
D13*
X210700000Y-57700000D03*
X218240000Y-48820000D03*
X213160000Y-48820000D03*
X219510000Y-51360000D03*
D15*
X220780000Y-53900000D03*
X210620000Y-53900000D03*
D14*
X215700000Y-53900000D03*
D13*
X211890000Y-51360000D03*
D11*
X210480000Y-49700000D03*
D12*
X210200000Y-53900000D03*
X221200000Y-53900000D03*
G04 #@! TD*
G04 #@! TO.C,SW7*
X126000000Y-69100000D03*
X115000000Y-69100000D03*
D11*
X115280000Y-64900000D03*
D13*
X116690000Y-66560000D03*
D14*
X120500000Y-69100000D03*
D15*
X115420000Y-69100000D03*
X125580000Y-69100000D03*
D13*
X124310000Y-66560000D03*
X117960000Y-64020000D03*
X123040000Y-64020000D03*
X115500000Y-72900000D03*
D16*
X120500000Y-75000000D03*
X125500000Y-72900000D03*
D11*
X125720000Y-64900000D03*
G04 #@! TD*
G04 #@! TO.C,SW8*
X144720000Y-62500000D03*
D16*
X144500000Y-70500000D03*
X139500000Y-72600000D03*
D13*
X134500000Y-70500000D03*
X142040000Y-61620000D03*
X136960000Y-61620000D03*
X143310000Y-64160000D03*
D15*
X144580000Y-66700000D03*
X134420000Y-66700000D03*
D14*
X139500000Y-66700000D03*
D13*
X135690000Y-64160000D03*
D11*
X134280000Y-62500000D03*
D12*
X134000000Y-66700000D03*
X145000000Y-66700000D03*
G04 #@! TD*
G04 #@! TO.C,SW9*
X164100000Y-65300000D03*
X153100000Y-65300000D03*
D11*
X153380000Y-61100000D03*
D13*
X154790000Y-62760000D03*
D14*
X158600000Y-65300000D03*
D15*
X153520000Y-65300000D03*
X163680000Y-65300000D03*
D13*
X162410000Y-62760000D03*
X156060000Y-60220000D03*
X161140000Y-60220000D03*
X153600000Y-69100000D03*
D16*
X158600000Y-71200000D03*
X163600000Y-69100000D03*
D11*
X163820000Y-61100000D03*
G04 #@! TD*
G04 #@! TO.C,SW10*
X182820000Y-62400000D03*
D16*
X182600000Y-70400000D03*
X177600000Y-72500000D03*
D13*
X172600000Y-70400000D03*
X180140000Y-61520000D03*
X175060000Y-61520000D03*
X181410000Y-64060000D03*
D15*
X182680000Y-66600000D03*
X172520000Y-66600000D03*
D14*
X177600000Y-66600000D03*
D13*
X173790000Y-64060000D03*
D11*
X172380000Y-62400000D03*
D12*
X172100000Y-66600000D03*
X183100000Y-66600000D03*
G04 #@! TD*
G04 #@! TO.C,SW11*
X202200000Y-71300000D03*
X191200000Y-71300000D03*
D11*
X191480000Y-67100000D03*
D13*
X192890000Y-68760000D03*
D14*
X196700000Y-71300000D03*
D15*
X191620000Y-71300000D03*
X201780000Y-71300000D03*
D13*
X200510000Y-68760000D03*
X194160000Y-66220000D03*
X199240000Y-66220000D03*
X191700000Y-75100000D03*
D16*
X196700000Y-77200000D03*
X201700000Y-75100000D03*
D11*
X201920000Y-67100000D03*
G04 #@! TD*
G04 #@! TO.C,SW12*
X220920000Y-68600000D03*
D16*
X220700000Y-76600000D03*
X215700000Y-78700000D03*
D13*
X210700000Y-76600000D03*
X218240000Y-67720000D03*
X213160000Y-67720000D03*
X219510000Y-70260000D03*
D15*
X220780000Y-72800000D03*
X210620000Y-72800000D03*
D14*
X215700000Y-72800000D03*
D13*
X211890000Y-70260000D03*
D11*
X210480000Y-68600000D03*
D12*
X210200000Y-72800000D03*
X221200000Y-72800000D03*
G04 #@! TD*
D11*
G04 #@! TO.C,SW13*
X125720000Y-83900000D03*
D16*
X125500000Y-91900000D03*
X120500000Y-94000000D03*
D13*
X115500000Y-91900000D03*
X123040000Y-83020000D03*
X117960000Y-83020000D03*
X124310000Y-85560000D03*
D15*
X125580000Y-88100000D03*
X115420000Y-88100000D03*
D14*
X120500000Y-88100000D03*
D13*
X116690000Y-85560000D03*
D11*
X115280000Y-83900000D03*
D12*
X115000000Y-88100000D03*
X126000000Y-88100000D03*
G04 #@! TD*
G04 #@! TO.C,SW14*
X145000000Y-85700000D03*
X134000000Y-85700000D03*
D11*
X134280000Y-81500000D03*
D13*
X135690000Y-83160000D03*
D14*
X139500000Y-85700000D03*
D15*
X134420000Y-85700000D03*
X144580000Y-85700000D03*
D13*
X143310000Y-83160000D03*
X136960000Y-80620000D03*
X142040000Y-80620000D03*
X134500000Y-89500000D03*
D16*
X139500000Y-91600000D03*
X144500000Y-89500000D03*
D11*
X144720000Y-81500000D03*
G04 #@! TD*
G04 #@! TO.C,SW15*
X163820000Y-80200000D03*
D16*
X163600000Y-88200000D03*
X158600000Y-90300000D03*
D13*
X153600000Y-88200000D03*
X161140000Y-79320000D03*
X156060000Y-79320000D03*
X162410000Y-81860000D03*
D15*
X163680000Y-84400000D03*
X153520000Y-84400000D03*
D14*
X158600000Y-84400000D03*
D13*
X154790000Y-81860000D03*
D11*
X153380000Y-80200000D03*
D12*
X153100000Y-84400000D03*
X164100000Y-84400000D03*
G04 #@! TD*
G04 #@! TO.C,SW16*
X183100000Y-85700000D03*
X172100000Y-85700000D03*
D11*
X172380000Y-81500000D03*
D13*
X173790000Y-83160000D03*
D14*
X177600000Y-85700000D03*
D15*
X172520000Y-85700000D03*
X182680000Y-85700000D03*
D13*
X181410000Y-83160000D03*
X175060000Y-80620000D03*
X180140000Y-80620000D03*
X172600000Y-89500000D03*
D16*
X177600000Y-91600000D03*
X182600000Y-89500000D03*
D11*
X182820000Y-81500000D03*
G04 #@! TD*
G04 #@! TO.C,SW17*
X201920000Y-86300000D03*
D16*
X201700000Y-94300000D03*
X196700000Y-96400000D03*
D13*
X191700000Y-94300000D03*
X199240000Y-85420000D03*
X194160000Y-85420000D03*
X200510000Y-87960000D03*
D15*
X201780000Y-90500000D03*
X191620000Y-90500000D03*
D14*
X196700000Y-90500000D03*
D13*
X192890000Y-87960000D03*
D11*
X191480000Y-86300000D03*
D12*
X191200000Y-90500000D03*
X202200000Y-90500000D03*
G04 #@! TD*
G04 #@! TO.C,SW19*
X126000000Y-107100000D03*
X115000000Y-107100000D03*
D11*
X115280000Y-102900000D03*
D13*
X116690000Y-104560000D03*
D14*
X120500000Y-107100000D03*
D15*
X115420000Y-107100000D03*
X125580000Y-107100000D03*
D13*
X124310000Y-104560000D03*
X117960000Y-102020000D03*
X123040000Y-102020000D03*
X115500000Y-110900000D03*
D16*
X120500000Y-113000000D03*
X125500000Y-110900000D03*
D11*
X125720000Y-102900000D03*
G04 #@! TD*
G04 #@! TO.C,SW20*
X144720000Y-100600000D03*
D16*
X144500000Y-108600000D03*
X139500000Y-110700000D03*
D13*
X134500000Y-108600000D03*
X142040000Y-99720000D03*
X136960000Y-99720000D03*
X143310000Y-102260000D03*
D15*
X144580000Y-104800000D03*
X134420000Y-104800000D03*
D14*
X139500000Y-104800000D03*
D13*
X135690000Y-102260000D03*
D11*
X134280000Y-100600000D03*
D12*
X134000000Y-104800000D03*
X145000000Y-104800000D03*
G04 #@! TD*
D11*
G04 #@! TO.C,SW21*
X163820000Y-99200000D03*
D16*
X163600000Y-107200000D03*
X158600000Y-109300000D03*
D13*
X153600000Y-107200000D03*
X161140000Y-98320000D03*
X156060000Y-98320000D03*
X162410000Y-100860000D03*
D15*
X163680000Y-103400000D03*
X153520000Y-103400000D03*
D14*
X158600000Y-103400000D03*
D13*
X154790000Y-100860000D03*
D11*
X153380000Y-99200000D03*
D12*
X153100000Y-103400000D03*
X164100000Y-103400000D03*
G04 #@! TD*
G04 #@! TO.C,SW22*
X183100000Y-104800000D03*
X172100000Y-104800000D03*
D11*
X172380000Y-100600000D03*
D13*
X173790000Y-102260000D03*
D14*
X177600000Y-104800000D03*
D15*
X172520000Y-104800000D03*
X182680000Y-104800000D03*
D13*
X181410000Y-102260000D03*
X175060000Y-99720000D03*
X180140000Y-99720000D03*
X172600000Y-108600000D03*
D16*
X177600000Y-110700000D03*
X182600000Y-108600000D03*
D11*
X182820000Y-100600000D03*
G04 #@! TD*
G04 #@! TO.C,SW23*
X201920000Y-105300000D03*
D16*
X201700000Y-113300000D03*
X196700000Y-115400000D03*
D13*
X191700000Y-113300000D03*
X199240000Y-104420000D03*
X194160000Y-104420000D03*
X200510000Y-106960000D03*
D15*
X201780000Y-109500000D03*
X191620000Y-109500000D03*
D14*
X196700000Y-109500000D03*
D13*
X192890000Y-106960000D03*
D11*
X191480000Y-105300000D03*
D12*
X191200000Y-109500000D03*
X202200000Y-109500000D03*
G04 #@! TD*
D11*
G04 #@! TO.C,SW27*
X135220000Y-121800000D03*
D16*
X135000000Y-129800000D03*
X130000000Y-131900000D03*
D13*
X125000000Y-129800000D03*
X132540000Y-120920000D03*
X127460000Y-120920000D03*
X133810000Y-123460000D03*
D15*
X135080000Y-126000000D03*
X124920000Y-126000000D03*
D14*
X130000000Y-126000000D03*
D13*
X126190000Y-123460000D03*
D11*
X124780000Y-121800000D03*
D12*
X124500000Y-126000000D03*
X135500000Y-126000000D03*
G04 #@! TD*
D11*
G04 #@! TO.C,SW29*
X173320000Y-119550000D03*
D16*
X173100000Y-127550000D03*
X168100000Y-129650000D03*
D13*
X163100000Y-127550000D03*
X170640000Y-118670000D03*
X165560000Y-118670000D03*
X171910000Y-121210000D03*
D15*
X173180000Y-123750000D03*
X163020000Y-123750000D03*
D14*
X168100000Y-123750000D03*
D13*
X164290000Y-121210000D03*
D11*
X162880000Y-119550000D03*
D12*
X162600000Y-123750000D03*
X173600000Y-123750000D03*
G04 #@! TD*
D18*
G04 #@! TO.C,U1*
X109020000Y-42230000D03*
X109020000Y-44770000D03*
X109020000Y-47310000D03*
X109020000Y-49850000D03*
X109020000Y-52390000D03*
X109020000Y-54930000D03*
X109020000Y-57470000D03*
X109020000Y-60010000D03*
X109020000Y-62550000D03*
X109020000Y-65090000D03*
X109020000Y-67630000D03*
X109020000Y-70170000D03*
X93780000Y-70170000D03*
X93780000Y-67630000D03*
X93780000Y-65090000D03*
X93780000Y-62550000D03*
X93780000Y-60010000D03*
X93780000Y-57470000D03*
X93780000Y-54930000D03*
X93780000Y-52390000D03*
X93780000Y-49850000D03*
X93780000Y-47310000D03*
X93780000Y-44770000D03*
X93780000Y-42230000D03*
G04 #@! TD*
D25*
G04 #@! TO.C,U2*
X108000000Y-85000000D03*
G04 #@! TD*
G04 #@! TO.C,U3*
X86000000Y-85000000D03*
G04 #@! TD*
D26*
G04 #@! TO.C,U4*
X130000000Y-95500000D03*
G04 #@! TD*
G04 #@! TO.C,U5*
X130000000Y-57250000D03*
G04 #@! TD*
G04 #@! TO.C,U6*
X206250000Y-62000000D03*
G04 #@! TD*
G04 #@! TO.C,U7*
X206250000Y-100000000D03*
G04 #@! TD*
G04 #@! TO.C,U8*
X105000000Y-114800000D03*
G04 #@! TD*
D23*
G04 #@! TO.C,W1*
X89300000Y-65000000D03*
X89300000Y-67000000D03*
G04 #@! TD*
M02*
