M48
;DRILL file {KiCad (5.0.0-3-g5ebb6b6)} date 
;FORMAT={-:-/ absolute / metric / decimal}
FMAT,2
METRIC,TZ
T1C1.200
T2C1.700
T3C1.900
T4C2.200
T5C4.000
T6C4.700
%
G90
G05
M71
T1
X172.38Y-100.6
X182.82Y-100.6
X134.28Y-43.4
X144.72Y-43.4
X106.027Y-120.379
X111.247Y-129.421
X115.28Y-83.9
X125.72Y-83.9
X86.5Y-77.
X86.5Y-78.75
X93.5Y-77.
X93.5Y-78.75
X210.53Y-106.8
X220.97Y-106.8
X162.88Y-119.55
X173.32Y-119.55
X191.48Y-48.2
X201.92Y-48.2
X172.38Y-81.5
X182.82Y-81.5
X134.28Y-62.5
X144.72Y-62.5
X134.28Y-100.6
X144.72Y-100.6
X143.78Y-119.55
X154.22Y-119.55
X191.48Y-67.1
X201.92Y-67.1
X191.48Y-105.3
X201.92Y-105.3
X153.31Y-42.01
X163.75Y-42.01
X134.28Y-81.5
X144.72Y-81.5
X210.48Y-49.7
X220.92Y-49.7
X191.48Y-86.3
X201.92Y-86.3
X86.25Y-40.8
X86.25Y-47.8
X88.Y-40.8
X88.Y-47.8
X153.38Y-61.1
X163.82Y-61.1
X153.38Y-99.2
X163.82Y-99.2
X115.28Y-45.8
X125.72Y-45.8
X210.48Y-68.6
X220.92Y-68.6
X210.48Y-87.8
X220.92Y-87.8
X124.78Y-121.8
X135.22Y-121.8
X172.38Y-43.4
X182.82Y-43.4
X153.38Y-80.2
X163.82Y-80.2
X115.28Y-64.9
X125.72Y-64.9
X115.28Y-102.9
X125.72Y-102.9
X96.18Y-93.3
X106.62Y-93.3
X172.38Y-62.4
X182.82Y-62.4
T2
X191.62Y-90.5
X201.78Y-90.5
X153.52Y-65.3
X163.68Y-65.3
X153.52Y-103.4
X163.68Y-103.4
X115.42Y-50.
X125.58Y-50.
X210.62Y-72.8
X220.78Y-72.8
X210.62Y-92.
X220.78Y-92.
X124.92Y-126.
X135.08Y-126.
X172.52Y-47.6
X182.68Y-47.6
X153.52Y-84.4
X163.68Y-84.4
X115.42Y-69.1
X125.58Y-69.1
X115.42Y-107.1
X125.58Y-107.1
X96.32Y-97.5
X106.48Y-97.5
X172.52Y-66.6
X182.68Y-66.6
X172.52Y-104.8
X182.68Y-104.8
X134.42Y-47.6
X144.58Y-47.6
X102.46Y-122.601
X107.54Y-131.399
X115.42Y-88.1
X125.58Y-88.1
X210.67Y-111.
X220.83Y-111.
X163.02Y-123.75
X173.18Y-123.75
X191.62Y-52.4
X201.78Y-52.4
X172.52Y-85.7
X182.68Y-85.7
X134.42Y-66.7
X144.58Y-66.7
X134.42Y-104.8
X144.58Y-104.8
X143.92Y-123.75
X154.08Y-123.75
X191.62Y-71.3
X201.78Y-71.3
X191.62Y-109.5
X201.78Y-109.5
X153.45Y-46.21
X163.61Y-46.21
X134.42Y-85.7
X144.58Y-85.7
X210.62Y-53.9
X220.78Y-53.9
T3
X210.2Y-92.
X221.2Y-92.
X124.5Y-126.
X135.5Y-126.
X172.1Y-47.6
X183.1Y-47.6
X153.1Y-84.4
X164.1Y-84.4
X115.Y-69.1
X126.Y-69.1
X115.Y-107.1
X126.Y-107.1
X95.9Y-97.5
X106.9Y-97.5
X172.1Y-66.6
X183.1Y-66.6
X172.1Y-104.8
X183.1Y-104.8
X134.Y-47.6
X145.Y-47.6
X102.25Y-122.237
X107.75Y-131.763
X115.Y-88.1
X126.Y-88.1
X210.25Y-111.
X221.25Y-111.
X162.6Y-123.75
X173.6Y-123.75
X191.2Y-52.4
X202.2Y-52.4
X172.1Y-85.7
X183.1Y-85.7
X134.Y-66.7
X145.Y-66.7
X134.Y-104.8
X145.Y-104.8
X143.5Y-123.75
X154.5Y-123.75
X191.2Y-71.3
X202.2Y-71.3
X191.2Y-109.5
X202.2Y-109.5
X153.03Y-46.21
X164.03Y-46.21
X134.Y-85.7
X145.Y-85.7
X210.2Y-53.9
X221.2Y-53.9
X191.2Y-90.5
X202.2Y-90.5
X153.1Y-65.3
X164.1Y-65.3
X153.1Y-103.4
X164.1Y-103.4
X115.Y-50.
X126.Y-50.
X210.2Y-72.8
X221.2Y-72.8
T4
X86.Y-85.
X108.Y-85.
T5
X215.7Y-53.9
X196.7Y-90.5
X158.6Y-65.3
X158.6Y-103.4
X120.5Y-50.
X215.7Y-72.8
X215.7Y-92.
X130.Y-126.
X177.6Y-47.6
X158.6Y-84.4
X120.5Y-69.1
X120.5Y-107.1
X101.4Y-97.5
X177.6Y-66.6
X177.6Y-104.8
X139.5Y-47.6
X105.Y-127.
X120.5Y-88.1
X215.75Y-111.
X168.1Y-123.75
X196.7Y-52.4
X177.6Y-85.7
X139.5Y-66.7
X139.5Y-104.8
X149.Y-123.75
X196.7Y-71.3
X196.7Y-109.5
X158.53Y-46.21
X139.5Y-85.7
T6
X206.25Y-100.
X206.25Y-62.
X130.Y-57.25
X130.Y-95.5
X105.Y-114.8
T0
M30
