G04 #@! TF.GenerationSoftware,KiCad,Pcbnew,(5.0.0-3-g5ebb6b6)*
G04 #@! TF.CreationDate,2018-08-17T18:08:10+09:00*
G04 #@! TF.ProjectId,Lily58,4C696C7935382E6B696361645F706362,rev?*
G04 #@! TF.SameCoordinates,Original*
G04 #@! TF.FileFunction,Profile,NP*
%FSLAX46Y46*%
G04 Gerber Fmt 4.6, Leading zero omitted, Abs format (unit mm)*
G04 Created by KiCad (PCBNEW (5.0.0-3-g5ebb6b6)) date *
%MOMM*%
%LPD*%
G01*
G04 APERTURE LIST*
%ADD10C,0.200000*%
G04 APERTURE END LIST*
D10*
X82937528Y-50750629D02*
X82937528Y-44443695D01*
X82937528Y-57057562D02*
X82937528Y-50750629D01*
X115211711Y-37086762D02*
X104803877Y-37086762D01*
X218692418Y-120789735D02*
X223959999Y-120789735D01*
X213424836Y-120789735D02*
X218692418Y-120789735D01*
X208157255Y-120789735D02*
X213424836Y-120789735D01*
X202889673Y-120789735D02*
X208157255Y-120789735D01*
X197622092Y-120789735D02*
X202889673Y-120789735D01*
X192354511Y-120789735D02*
X197622092Y-120789735D01*
X187086929Y-120789735D02*
X192354511Y-120789735D01*
X181819348Y-120789735D02*
X187086929Y-120789735D01*
X181113524Y-120860778D02*
X181819348Y-120789735D01*
X180456326Y-121064561D02*
X181113524Y-120860778D01*
X179861773Y-121387065D02*
X180456326Y-121064561D01*
X179343884Y-121814271D02*
X179861773Y-121387065D01*
X178916678Y-122332160D02*
X179343884Y-121814271D01*
X178594174Y-122926713D02*
X178916678Y-122332160D01*
X178390391Y-123583911D02*
X178594174Y-122926713D01*
X178319348Y-124289735D02*
X178390391Y-123583911D01*
X199807654Y-38170488D02*
X189919538Y-37585374D01*
X208420758Y-38945561D02*
X199807654Y-38170488D01*
X215525697Y-39885159D02*
X208420758Y-38945561D01*
X220889319Y-40963847D02*
X215525697Y-39885159D01*
X178989563Y-37215654D02*
X167250881Y-37086762D01*
X189919538Y-37585374D02*
X178989563Y-37215654D01*
X177658308Y-135255660D02*
X177403500Y-135393876D01*
X177880261Y-135072571D02*
X177658308Y-135255660D01*
X178063349Y-134850619D02*
X177880261Y-135072571D01*
X178201565Y-134595810D02*
X178063349Y-134850619D01*
X178288901Y-134314154D02*
X178201565Y-134595810D01*
X178319348Y-134011658D02*
X178288901Y-134314154D01*
X225460000Y-52918378D02*
X225460000Y-62400000D01*
X225460000Y-43436755D02*
X225460000Y-52918378D01*
X82937528Y-69671429D02*
X82937528Y-63364495D01*
X82937528Y-75978362D02*
X82937528Y-69671429D01*
X82937528Y-82285296D02*
X82937528Y-75978362D01*
X82937528Y-88592229D02*
X82937528Y-82285296D01*
X104803877Y-37086762D02*
X94396044Y-37086762D01*
X125619545Y-37086762D02*
X115211711Y-37086762D01*
X136027379Y-37086762D02*
X125619545Y-37086762D01*
X146435213Y-37086762D02*
X136027379Y-37086762D01*
X156843047Y-37086762D02*
X146435213Y-37086762D01*
X167250881Y-37086762D02*
X156843047Y-37086762D01*
X83400937Y-37265961D02*
X83579303Y-37169210D01*
X83245570Y-37394123D02*
X83400937Y-37265961D01*
X83117409Y-37549489D02*
X83245570Y-37394123D01*
X83020657Y-37727855D02*
X83117409Y-37549489D01*
X82959523Y-37925015D02*
X83020657Y-37727855D01*
X82938210Y-38136762D02*
X82959523Y-37925015D01*
X83776462Y-37108075D02*
X83988210Y-37086762D01*
X83579303Y-37169210D02*
X83776462Y-37108075D01*
X94396044Y-37086762D02*
X83988210Y-37086762D01*
X82937528Y-63364495D02*
X82937528Y-57057562D01*
X82937528Y-44443695D02*
X82937528Y-38136762D01*
X88291758Y-116318073D02*
X89993333Y-119989540D01*
X86863105Y-112530670D02*
X88291758Y-116318073D01*
X85688004Y-108649127D02*
X86863105Y-112530670D01*
X84747083Y-104695246D02*
X85688004Y-108649127D01*
X84020972Y-100690825D02*
X84747083Y-104695246D01*
X83490297Y-96657663D02*
X84020972Y-100690825D01*
X83135690Y-92617561D02*
X83490297Y-96657663D01*
X82937777Y-88592317D02*
X83135690Y-92617561D01*
X104288864Y-143357278D02*
X104456758Y-143271756D01*
X104130206Y-143404468D02*
X104288864Y-143357278D01*
X103981252Y-143413974D02*
X104130206Y-143404468D01*
X103842470Y-143386445D02*
X103981252Y-143413974D01*
X103714328Y-143322532D02*
X103842470Y-143386445D01*
X103597295Y-143222884D02*
X103714328Y-143322532D01*
X103491837Y-143088150D02*
X103597295Y-143222884D01*
X103398425Y-142918979D02*
X103491837Y-143088150D01*
X116186619Y-136480784D02*
X117862313Y-135510645D01*
X114510925Y-137450923D02*
X116186619Y-136480784D01*
X112835230Y-138421062D02*
X114510925Y-137450923D01*
X111159536Y-139391201D02*
X112835230Y-138421062D01*
X109483841Y-140361340D02*
X111159536Y-139391201D01*
X107808147Y-141331479D02*
X109483841Y-140361340D01*
X106132452Y-142301617D02*
X107808147Y-141331479D01*
X104456758Y-143271756D02*
X106132452Y-142301617D01*
X101722730Y-140052659D02*
X103398425Y-142918979D01*
X100047036Y-137186340D02*
X101722730Y-140052659D01*
X98371341Y-134320020D02*
X100047036Y-137186340D01*
X96695647Y-131453701D02*
X98371341Y-134320020D01*
X95019952Y-128587381D02*
X96695647Y-131453701D01*
X93344258Y-125721062D02*
X95019952Y-128587381D01*
X91668563Y-122854742D02*
X93344258Y-125721062D01*
X89992869Y-119988423D02*
X91668563Y-122854742D01*
X169449826Y-135511658D02*
X176819348Y-135511658D01*
X162080304Y-135511658D02*
X169449826Y-135511658D01*
X154710782Y-135511658D02*
X162080304Y-135511658D01*
X147341260Y-135511658D02*
X154710782Y-135511658D01*
X139971738Y-135511658D02*
X147341260Y-135511658D01*
X132602217Y-135511658D02*
X139971738Y-135511658D01*
X125232695Y-135511658D02*
X132602217Y-135511658D01*
X117863173Y-135511658D02*
X125232695Y-135511658D01*
X178319348Y-132816013D02*
X178319348Y-134034052D01*
X178319348Y-131597973D02*
X178319348Y-132816013D01*
X178319348Y-130379933D02*
X178319348Y-131597973D01*
X178319348Y-129161894D02*
X178319348Y-130379933D01*
X178319348Y-127943854D02*
X178319348Y-129161894D01*
X178319348Y-126725814D02*
X178319348Y-127943854D01*
X178319348Y-125507775D02*
X178319348Y-126725814D01*
X178319348Y-124289735D02*
X178319348Y-125507775D01*
X177121844Y-135481211D02*
X176819348Y-135511658D01*
X177403500Y-135393876D02*
X177121844Y-135481211D01*
X224278471Y-42156190D02*
X220889319Y-40963847D01*
X225460000Y-43436755D02*
X224278471Y-42156190D01*
X224262495Y-120759288D02*
X223959999Y-120789735D01*
X224544152Y-120671952D02*
X224262495Y-120759288D01*
X224798960Y-120533736D02*
X224544152Y-120671952D01*
X225020912Y-120350648D02*
X224798960Y-120533736D01*
X225204001Y-120128696D02*
X225020912Y-120350648D01*
X225342217Y-119873887D02*
X225204001Y-120128696D01*
X225429552Y-119592231D02*
X225342217Y-119873887D01*
X225459999Y-119289735D02*
X225429552Y-119592231D01*
X225460000Y-109808112D02*
X225460000Y-119289735D01*
X225460000Y-100326490D02*
X225460000Y-109808112D01*
X225460000Y-90844867D02*
X225460000Y-100326490D01*
X225460000Y-81363245D02*
X225460000Y-90844867D01*
X225460000Y-71881623D02*
X225460000Y-81363245D01*
X225460000Y-62400000D02*
X225460000Y-71881623D01*
M02*
